<svg xmlns="http://www.w3.org/2000/svg" viewBox="0 0 251.5 251.5"><path fill="#EC3C2D" d="M5 172.8v-103h42.5v-30h75v30l30 1v60l67.5 1.4V97.8l26 .4v57.6l-32.5 1-1 55h-30l-3 37.4h-102l.5-14-12-1 .5-21.4-22 .4-.5-11-13-2.4.5-15-17-.6v-10zM156.5 5H184v26.5h-27.5z"/><path fill="#EC3C2D" d="M190 68h24.5v24H190zM220.5 36.5H246V62h-25.5z"/><path fill="#F06F33" d="M64.8 102.2v-30l30 3 2 27 22.4 3 5 58.6h62l-3.4 21-30.6 2.4-2 29.6H96.8l.4-41-30-.6-2.4-14.4-22-.6v-58z"/><path fill="#FFF" d="M70.2 118h31.5v26.5H70.2z"/><path fill="#FFF" d="M86 142.5h31.5V169H86z"/></svg>